<mxfile host="app.diagrams.net" modified="2021-12-22T04:03:30.920Z" agent="5.0 (Windows NT 10.0; Win64; x64) AppleWebKit/537.36 (KHTML, like Gecko) Chrome/96.0.4664.110 Safari/537.36 Edg/96.0.1054.62" etag="EdAu-7jzMRK3K3SK2fJI" version="15.5.0" type="github" pages="2">
  <diagram id="twGESngpe0sXLNPa1MpP" name="Page-1">
    <mxGraphModel dx="944" dy="830" grid="1" gridSize="10" guides="1" tooltips="1" connect="1" arrows="1" fold="1" page="1" pageScale="1" pageWidth="827" pageHeight="1169" math="0" shadow="0">
      <root>
        <mxCell id="0" />
        <mxCell id="1" parent="0" />
        <mxCell id="z7iF-O1M8cMVNihUmkFv-28" value="推送" style="edgeStyle=orthogonalEdgeStyle;rounded=0;orthogonalLoop=1;jettySize=auto;html=1;exitX=1;exitY=0.5;exitDx=0;exitDy=0;entryX=0;entryY=0.5;entryDx=0;entryDy=0;fontSize=12;" edge="1" parent="1" source="z7iF-O1M8cMVNihUmkFv-4" target="z7iF-O1M8cMVNihUmkFv-26">
          <mxGeometry x="0.0741" y="20" relative="1" as="geometry">
            <mxPoint as="offset" />
          </mxGeometry>
        </mxCell>
        <mxCell id="z7iF-O1M8cMVNihUmkFv-53" style="edgeStyle=orthogonalEdgeStyle;rounded=0;orthogonalLoop=1;jettySize=auto;html=1;exitX=0.25;exitY=1;exitDx=0;exitDy=0;entryX=1;entryY=0.5;entryDx=0;entryDy=0;fontSize=12;fontColor=#000000;endArrow=none;endFill=0;" edge="1" parent="1" source="z7iF-O1M8cMVNihUmkFv-4" target="z7iF-O1M8cMVNihUmkFv-46">
          <mxGeometry relative="1" as="geometry" />
        </mxCell>
        <mxCell id="z7iF-O1M8cMVNihUmkFv-70" style="edgeStyle=orthogonalEdgeStyle;rounded=0;orthogonalLoop=1;jettySize=auto;html=1;exitX=1;exitY=1;exitDx=0;exitDy=0;entryX=0.5;entryY=0;entryDx=0;entryDy=0;fontSize=12;fontColor=#000000;endArrow=classic;endFill=1;dashed=1;" edge="1" parent="1" source="z7iF-O1M8cMVNihUmkFv-4" target="z7iF-O1M8cMVNihUmkFv-71">
          <mxGeometry relative="1" as="geometry">
            <mxPoint x="466" y="223" as="targetPoint" />
            <Array as="points">
              <mxPoint x="488" y="208" />
            </Array>
          </mxGeometry>
        </mxCell>
        <mxCell id="z7iF-O1M8cMVNihUmkFv-4" value="测试服务器&lt;br&gt;192.168.0.102（虚机）" style="rounded=1;whiteSpace=wrap;html=1;" vertex="1" parent="1">
          <mxGeometry x="332" y="148" width="108" height="60" as="geometry" />
        </mxCell>
        <mxCell id="z7iF-O1M8cMVNihUmkFv-16" value="" style="shape=umlActor;verticalLabelPosition=bottom;verticalAlign=top;html=1;outlineConnect=0;" vertex="1" parent="1">
          <mxGeometry x="156" y="384" width="30" height="60" as="geometry" />
        </mxCell>
        <mxCell id="z7iF-O1M8cMVNihUmkFv-20" value="" style="shape=umlActor;verticalLabelPosition=bottom;verticalAlign=top;html=1;outlineConnect=0;" vertex="1" parent="1">
          <mxGeometry x="363" y="384" width="30" height="60" as="geometry" />
        </mxCell>
        <mxCell id="z7iF-O1M8cMVNihUmkFv-23" value="&lt;span style=&quot;font-size: 12px ; background-color: rgb(248 , 249 , 250)&quot;&gt;连接/测试&lt;/span&gt;" style="edgeStyle=orthogonalEdgeStyle;rounded=0;orthogonalLoop=1;jettySize=auto;html=1;exitX=0.5;exitY=0;exitDx=0;exitDy=0;entryX=0.5;entryY=1;entryDx=0;entryDy=0;" edge="1" parent="1" source="z7iF-O1M8cMVNihUmkFv-21" target="z7iF-O1M8cMVNihUmkFv-4">
          <mxGeometry x="-0.4462" y="-33" relative="1" as="geometry">
            <mxPoint x="1" as="offset" />
          </mxGeometry>
        </mxCell>
        <mxCell id="z7iF-O1M8cMVNihUmkFv-21" value="浏览器、测试工具&lt;br&gt;PC" style="rounded=1;whiteSpace=wrap;html=1;" vertex="1" parent="1">
          <mxGeometry x="331" y="305" width="110" height="60" as="geometry" />
        </mxCell>
        <mxCell id="z7iF-O1M8cMVNihUmkFv-24" value="&lt;b&gt;&lt;font style=&quot;font-size: 24px&quot;&gt;GZ项目开发测试流程示意图&lt;/font&gt;&lt;/b&gt;" style="text;html=1;align=center;verticalAlign=middle;resizable=0;points=[];autosize=1;strokeColor=none;fillColor=none;" vertex="1" parent="1">
          <mxGeometry x="297" y="60" width="310" height="20" as="geometry" />
        </mxCell>
        <mxCell id="z7iF-O1M8cMVNihUmkFv-26" value="GZ互联网侧" style="rounded=1;whiteSpace=wrap;html=1;" vertex="1" parent="1">
          <mxGeometry x="633" y="148" width="110" height="60" as="geometry" />
        </mxCell>
        <mxCell id="z7iF-O1M8cMVNihUmkFv-27" value="" style="endArrow=none;dashed=1;html=1;dashPattern=1 3;strokeWidth=2;rounded=0;fontSize=12;edgeStyle=orthogonalEdgeStyle;" edge="1" parent="1">
          <mxGeometry width="50" height="50" relative="1" as="geometry">
            <mxPoint x="603" y="385" as="sourcePoint" />
            <mxPoint x="603" y="115" as="targetPoint" />
          </mxGeometry>
        </mxCell>
        <mxCell id="z7iF-O1M8cMVNihUmkFv-59" value="推送" style="edgeStyle=orthogonalEdgeStyle;rounded=0;orthogonalLoop=1;jettySize=auto;html=1;exitX=1;exitY=0.5;exitDx=0;exitDy=0;entryX=0;entryY=0.5;entryDx=0;entryDy=0;fontSize=12;fontColor=#000000;endArrow=classic;endFill=1;" edge="1" parent="1" source="z7iF-O1M8cMVNihUmkFv-29" target="z7iF-O1M8cMVNihUmkFv-32">
          <mxGeometry x="0.0989" y="-13" relative="1" as="geometry">
            <mxPoint as="offset" />
          </mxGeometry>
        </mxCell>
        <mxCell id="z7iF-O1M8cMVNihUmkFv-29" value="本地服务器" style="rounded=1;whiteSpace=wrap;html=1;" vertex="1" parent="1">
          <mxGeometry x="119" y="635" width="120" height="60" as="geometry" />
        </mxCell>
        <mxCell id="z7iF-O1M8cMVNihUmkFv-40" value="连接/测试" style="edgeStyle=orthogonalEdgeStyle;rounded=0;orthogonalLoop=1;jettySize=auto;html=1;exitX=0.5;exitY=1;exitDx=0;exitDy=0;fontSize=12;" edge="1" parent="1" source="z7iF-O1M8cMVNihUmkFv-30" target="z7iF-O1M8cMVNihUmkFv-32">
          <mxGeometry x="-0.5423" y="25" relative="1" as="geometry">
            <mxPoint as="offset" />
          </mxGeometry>
        </mxCell>
        <mxCell id="z7iF-O1M8cMVNihUmkFv-30" value="PC&lt;br&gt;浏览器、测试工具" style="rounded=1;whiteSpace=wrap;html=1;" vertex="1" parent="1">
          <mxGeometry x="329" y="468" width="113" height="60" as="geometry" />
        </mxCell>
        <mxCell id="z7iF-O1M8cMVNihUmkFv-73" style="edgeStyle=orthogonalEdgeStyle;rounded=0;orthogonalLoop=1;jettySize=auto;html=1;exitX=0.75;exitY=0;exitDx=0;exitDy=0;entryX=0;entryY=0.5;entryDx=0;entryDy=0;fontSize=12;fontColor=#000000;endArrow=classic;endFill=1;" edge="1" parent="1" source="z7iF-O1M8cMVNihUmkFv-32" target="z7iF-O1M8cMVNihUmkFv-71">
          <mxGeometry relative="1" as="geometry" />
        </mxCell>
        <mxCell id="z7iF-O1M8cMVNihUmkFv-32" value="测试服务器&lt;br&gt;10.8.0.28-31" style="rounded=1;whiteSpace=wrap;html=1;" vertex="1" parent="1">
          <mxGeometry x="330" y="635" width="110" height="60" as="geometry" />
        </mxCell>
        <mxCell id="z7iF-O1M8cMVNihUmkFv-35" value="GZ专网侧" style="rounded=1;whiteSpace=wrap;html=1;" vertex="1" parent="1">
          <mxGeometry x="633" y="635" width="110" height="60" as="geometry" />
        </mxCell>
        <mxCell id="z7iF-O1M8cMVNihUmkFv-36" value="" style="endArrow=none;html=1;rounded=0;fontSize=12;edgeStyle=orthogonalEdgeStyle;" edge="1" parent="1">
          <mxGeometry width="50" height="50" relative="1" as="geometry">
            <mxPoint x="603" y="695" as="sourcePoint" />
            <mxPoint x="603" y="438" as="targetPoint" />
          </mxGeometry>
        </mxCell>
        <mxCell id="z7iF-O1M8cMVNihUmkFv-37" value="光闸推送、光盘" style="endArrow=open;endSize=12;dashed=1;html=1;rounded=0;fontSize=12;edgeStyle=orthogonalEdgeStyle;exitX=1;exitY=0.5;exitDx=0;exitDy=0;entryX=0;entryY=0.5;entryDx=0;entryDy=0;" edge="1" parent="1" source="z7iF-O1M8cMVNihUmkFv-32" target="z7iF-O1M8cMVNihUmkFv-35">
          <mxGeometry x="0.0741" y="17" width="160" relative="1" as="geometry">
            <mxPoint x="483" y="808" as="sourcePoint" />
            <mxPoint x="643" y="808" as="targetPoint" />
            <mxPoint as="offset" />
          </mxGeometry>
        </mxCell>
        <mxCell id="z7iF-O1M8cMVNihUmkFv-42" value="内网局域网" style="text;html=1;strokeColor=none;fillColor=none;align=center;verticalAlign=middle;whiteSpace=wrap;rounded=0;fontSize=12;fontColor=#FF0000;" vertex="1" parent="1">
          <mxGeometry x="249" y="468" width="70" height="30" as="geometry" />
        </mxCell>
        <mxCell id="z7iF-O1M8cMVNihUmkFv-45" value="外网局域网" style="text;html=1;strokeColor=none;fillColor=none;align=center;verticalAlign=middle;whiteSpace=wrap;rounded=0;fontSize=12;fontColor=#0000FF;" vertex="1" parent="1">
          <mxGeometry x="240.5" y="118" width="70" height="30" as="geometry" />
        </mxCell>
        <mxCell id="z7iF-O1M8cMVNihUmkFv-46" value="MySQL数据库&lt;br&gt;192.168.0.102" style="shape=process;whiteSpace=wrap;html=1;backgroundOutline=1;" vertex="1" parent="1">
          <mxGeometry x="215.5" y="223" width="120" height="60" as="geometry" />
        </mxCell>
        <mxCell id="z7iF-O1M8cMVNihUmkFv-50" value="&lt;font color=&quot;#000000&quot;&gt;推送&lt;/font&gt;" style="edgeStyle=orthogonalEdgeStyle;rounded=0;orthogonalLoop=1;jettySize=auto;html=1;exitX=1;exitY=0.5;exitDx=0;exitDy=0;entryX=0;entryY=0.5;entryDx=0;entryDy=0;fontSize=12;fontColor=#0000FF;" edge="1" parent="1" source="z7iF-O1M8cMVNihUmkFv-47" target="z7iF-O1M8cMVNihUmkFv-4">
          <mxGeometry x="-0.1304" y="20" relative="1" as="geometry">
            <mxPoint as="offset" />
          </mxGeometry>
        </mxCell>
        <mxCell id="z7iF-O1M8cMVNihUmkFv-47" value="本地服务器" style="rounded=1;whiteSpace=wrap;html=1;" vertex="1" parent="1">
          <mxGeometry x="120" y="148" width="120" height="60" as="geometry" />
        </mxCell>
        <mxCell id="z7iF-O1M8cMVNihUmkFv-55" value="调试" style="edgeStyle=orthogonalEdgeStyle;rounded=0;orthogonalLoop=1;jettySize=auto;html=1;exitX=0.25;exitY=0;exitDx=0;exitDy=0;entryX=0.25;entryY=1;entryDx=0;entryDy=0;fontSize=12;fontColor=#000000;endArrow=classic;endFill=1;" edge="1" parent="1" source="z7iF-O1M8cMVNihUmkFv-51" target="z7iF-O1M8cMVNihUmkFv-47">
          <mxGeometry x="-0.4469" y="-21" relative="1" as="geometry">
            <mxPoint as="offset" />
          </mxGeometry>
        </mxCell>
        <mxCell id="z7iF-O1M8cMVNihUmkFv-51" value="浏览器、开发工具&lt;br&gt;PC" style="rounded=1;whiteSpace=wrap;html=1;" vertex="1" parent="1">
          <mxGeometry x="121" y="305" width="113" height="60" as="geometry" />
        </mxCell>
        <mxCell id="z7iF-O1M8cMVNihUmkFv-54" style="edgeStyle=orthogonalEdgeStyle;rounded=0;orthogonalLoop=1;jettySize=auto;html=1;exitX=0.5;exitY=1;exitDx=0;exitDy=0;entryX=0;entryY=0.5;entryDx=0;entryDy=0;fontSize=12;fontColor=#000000;endArrow=none;endFill=0;" edge="1" parent="1" source="z7iF-O1M8cMVNihUmkFv-47" target="z7iF-O1M8cMVNihUmkFv-46">
          <mxGeometry relative="1" as="geometry" />
        </mxCell>
        <mxCell id="z7iF-O1M8cMVNihUmkFv-58" value="调试" style="edgeStyle=orthogonalEdgeStyle;rounded=0;orthogonalLoop=1;jettySize=auto;html=1;exitX=0.25;exitY=1;exitDx=0;exitDy=0;entryX=0.25;entryY=0;entryDx=0;entryDy=0;fontSize=12;fontColor=#000000;endArrow=classic;endFill=1;" edge="1" parent="1" source="z7iF-O1M8cMVNihUmkFv-56" target="z7iF-O1M8cMVNihUmkFv-29">
          <mxGeometry x="-0.6828" y="21" relative="1" as="geometry">
            <mxPoint as="offset" />
          </mxGeometry>
        </mxCell>
        <mxCell id="z7iF-O1M8cMVNihUmkFv-56" value="PC&lt;br&gt;浏览器、开发工具" style="rounded=1;whiteSpace=wrap;html=1;" vertex="1" parent="1">
          <mxGeometry x="121" y="468" width="113" height="60" as="geometry" />
        </mxCell>
        <mxCell id="z7iF-O1M8cMVNihUmkFv-57" value="数据库&lt;br&gt;10.8.0.28-31" style="shape=process;whiteSpace=wrap;html=1;backgroundOutline=1;" vertex="1" parent="1">
          <mxGeometry x="214.5" y="543.5" width="120" height="60" as="geometry" />
        </mxCell>
        <mxCell id="z7iF-O1M8cMVNihUmkFv-60" style="edgeStyle=orthogonalEdgeStyle;rounded=0;orthogonalLoop=1;jettySize=auto;html=1;exitX=0.5;exitY=0;exitDx=0;exitDy=0;entryX=0;entryY=0.5;entryDx=0;entryDy=0;fontSize=12;fontColor=#000000;endArrow=none;endFill=0;" edge="1" parent="1" source="z7iF-O1M8cMVNihUmkFv-29" target="z7iF-O1M8cMVNihUmkFv-57">
          <mxGeometry relative="1" as="geometry">
            <mxPoint x="164" y="555.5" as="sourcePoint" />
            <mxPoint x="199.5" y="600.5" as="targetPoint" />
          </mxGeometry>
        </mxCell>
        <mxCell id="z7iF-O1M8cMVNihUmkFv-61" style="edgeStyle=orthogonalEdgeStyle;rounded=0;orthogonalLoop=1;jettySize=auto;html=1;entryX=1;entryY=0.5;entryDx=0;entryDy=0;fontSize=12;fontColor=#000000;endArrow=none;endFill=0;exitX=0.25;exitY=0;exitDx=0;exitDy=0;" edge="1" parent="1" source="z7iF-O1M8cMVNihUmkFv-32" target="z7iF-O1M8cMVNihUmkFv-57">
          <mxGeometry relative="1" as="geometry">
            <mxPoint x="371" y="570.5" as="sourcePoint" />
            <mxPoint x="347" y="615.5" as="targetPoint" />
          </mxGeometry>
        </mxCell>
        <mxCell id="z7iF-O1M8cMVNihUmkFv-67" value="Developer" style="text;html=1;strokeColor=none;fillColor=none;align=center;verticalAlign=middle;whiteSpace=wrap;rounded=0;fontSize=12;fontColor=#000000;" vertex="1" parent="1">
          <mxGeometry x="181" y="399" width="60" height="30" as="geometry" />
        </mxCell>
        <mxCell id="z7iF-O1M8cMVNihUmkFv-68" value="Tester" style="text;html=1;strokeColor=none;fillColor=none;align=center;verticalAlign=middle;whiteSpace=wrap;rounded=0;fontSize=12;fontColor=#000000;" vertex="1" parent="1">
          <mxGeometry x="393" y="399" width="60" height="30" as="geometry" />
        </mxCell>
        <mxCell id="z7iF-O1M8cMVNihUmkFv-71" value="演示环境" style="rounded=1;whiteSpace=wrap;html=1;fontSize=12;fontColor=#000000;strokeColor=#000000;fillColor=none;" vertex="1" parent="1">
          <mxGeometry x="455" y="553" width="66.5" height="60" as="geometry" />
        </mxCell>
      </root>
    </mxGraphModel>
  </diagram>
  <diagram id="xAizwRHMDeMgXmnihbNj" name="Page-2">
    <mxGraphModel dx="944" dy="830" grid="1" gridSize="10" guides="1" tooltips="1" connect="1" arrows="1" fold="1" page="1" pageScale="1" pageWidth="827" pageHeight="1169" math="0" shadow="0">
      <root>
        <mxCell id="ge5L9ozpoHXoKX3X5Ei_-0" />
        <mxCell id="ge5L9ozpoHXoKX3X5Ei_-1" parent="ge5L9ozpoHXoKX3X5Ei_-0" />
        <mxCell id="M6mGPlOZ9tg9JCHZdHIi-0" value="&lt;b&gt;&lt;font style=&quot;font-size: 24px&quot;&gt;等保备案系统开发测试流程示意图&lt;/font&gt;&lt;/b&gt;" style="text;html=1;align=center;verticalAlign=middle;resizable=0;points=[];autosize=1;strokeColor=none;fillColor=none;" vertex="1" parent="ge5L9ozpoHXoKX3X5Ei_-1">
          <mxGeometry x="251" y="106" width="380" height="20" as="geometry" />
        </mxCell>
        <mxCell id="hn4bFSvkFgK69JfezBoe-2" value="推送" style="edgeStyle=orthogonalEdgeStyle;rounded=0;orthogonalLoop=1;jettySize=auto;html=1;exitX=1;exitY=0.5;exitDx=0;exitDy=0;entryX=0;entryY=0.5;entryDx=0;entryDy=0;fontSize=12;fontColor=#000000;endArrow=classic;endFill=1;" edge="1" parent="ge5L9ozpoHXoKX3X5Ei_-1" source="FdDDtz1to_vNbsyQbwL1-0" target="2ZtzwXfV-rk-jxDoaxTh-0">
          <mxGeometry x="-0.0182" y="26" relative="1" as="geometry">
            <mxPoint as="offset" />
          </mxGeometry>
        </mxCell>
        <mxCell id="FdDDtz1to_vNbsyQbwL1-0" value="测试服务器&lt;br&gt;192.168.0.212" style="rounded=1;whiteSpace=wrap;html=1;" vertex="1" parent="ge5L9ozpoHXoKX3X5Ei_-1">
          <mxGeometry x="338" y="206" width="108" height="60" as="geometry" />
        </mxCell>
        <mxCell id="FdDDtz1to_vNbsyQbwL1-1" value="外网局域网" style="text;html=1;strokeColor=none;fillColor=none;align=center;verticalAlign=middle;whiteSpace=wrap;rounded=0;fontSize=12;fontColor=#0000FF;" vertex="1" parent="ge5L9ozpoHXoKX3X5Ei_-1">
          <mxGeometry x="246.5" y="176" width="70" height="30" as="geometry" />
        </mxCell>
        <mxCell id="FdDDtz1to_vNbsyQbwL1-2" value="&lt;font color=&quot;#000000&quot;&gt;推送&lt;/font&gt;" style="edgeStyle=orthogonalEdgeStyle;rounded=0;orthogonalLoop=1;jettySize=auto;html=1;exitX=1;exitY=0.5;exitDx=0;exitDy=0;entryX=0;entryY=0.5;entryDx=0;entryDy=0;fontSize=12;fontColor=#0000FF;" edge="1" parent="ge5L9ozpoHXoKX3X5Ei_-1" source="FdDDtz1to_vNbsyQbwL1-3" target="FdDDtz1to_vNbsyQbwL1-0">
          <mxGeometry x="-0.1304" y="20" relative="1" as="geometry">
            <mxPoint as="offset" />
          </mxGeometry>
        </mxCell>
        <mxCell id="FdDDtz1to_vNbsyQbwL1-3" value="本地服务器" style="rounded=1;whiteSpace=wrap;html=1;" vertex="1" parent="ge5L9ozpoHXoKX3X5Ei_-1">
          <mxGeometry x="126" y="206" width="120" height="60" as="geometry" />
        </mxCell>
        <mxCell id="iKFwZHbpq23q5c-G5lsw-0" value="" style="shape=umlActor;verticalLabelPosition=bottom;verticalAlign=top;html=1;outlineConnect=0;" vertex="1" parent="ge5L9ozpoHXoKX3X5Ei_-1">
          <mxGeometry x="161" y="447" width="30" height="60" as="geometry" />
        </mxCell>
        <mxCell id="iKFwZHbpq23q5c-G5lsw-1" value="" style="shape=umlActor;verticalLabelPosition=bottom;verticalAlign=top;html=1;outlineConnect=0;" vertex="1" parent="ge5L9ozpoHXoKX3X5Ei_-1">
          <mxGeometry x="368" y="447" width="30" height="60" as="geometry" />
        </mxCell>
        <mxCell id="2ZtzwXfV-rk-jxDoaxTh-4" value="连接/测试" style="edgeStyle=orthogonalEdgeStyle;rounded=0;orthogonalLoop=1;jettySize=auto;html=1;exitX=0.5;exitY=0;exitDx=0;exitDy=0;entryX=0.5;entryY=1;entryDx=0;entryDy=0;fontSize=12;fontColor=#000000;endArrow=classic;endFill=1;" edge="1" parent="ge5L9ozpoHXoKX3X5Ei_-1" source="iKFwZHbpq23q5c-G5lsw-2" target="FdDDtz1to_vNbsyQbwL1-0">
          <mxGeometry x="-0.5686" y="-44" relative="1" as="geometry">
            <mxPoint as="offset" />
          </mxGeometry>
        </mxCell>
        <mxCell id="iKFwZHbpq23q5c-G5lsw-2" value="浏览器、测试工具&lt;br&gt;PC" style="rounded=1;whiteSpace=wrap;html=1;" vertex="1" parent="ge5L9ozpoHXoKX3X5Ei_-1">
          <mxGeometry x="337" y="368" width="110" height="60" as="geometry" />
        </mxCell>
        <mxCell id="hn4bFSvkFgK69JfezBoe-0" style="edgeStyle=orthogonalEdgeStyle;rounded=0;orthogonalLoop=1;jettySize=auto;html=1;exitX=1;exitY=0.5;exitDx=0;exitDy=0;entryX=0.25;entryY=1;entryDx=0;entryDy=0;fontSize=12;fontColor=#000000;endArrow=none;endFill=0;" edge="1" parent="ge5L9ozpoHXoKX3X5Ei_-1" source="iKFwZHbpq23q5c-G5lsw-3" target="FdDDtz1to_vNbsyQbwL1-0">
          <mxGeometry relative="1" as="geometry" />
        </mxCell>
        <mxCell id="hn4bFSvkFgK69JfezBoe-1" style="edgeStyle=orthogonalEdgeStyle;rounded=0;orthogonalLoop=1;jettySize=auto;html=1;exitX=0;exitY=0.5;exitDx=0;exitDy=0;entryX=0.5;entryY=1;entryDx=0;entryDy=0;fontSize=12;fontColor=#000000;endArrow=none;endFill=0;" edge="1" parent="ge5L9ozpoHXoKX3X5Ei_-1" source="iKFwZHbpq23q5c-G5lsw-3" target="FdDDtz1to_vNbsyQbwL1-3">
          <mxGeometry relative="1" as="geometry" />
        </mxCell>
        <mxCell id="iKFwZHbpq23q5c-G5lsw-3" value="MySQL数据库&lt;br&gt;192.168.0.212" style="shape=process;whiteSpace=wrap;html=1;backgroundOutline=1;" vertex="1" parent="ge5L9ozpoHXoKX3X5Ei_-1">
          <mxGeometry x="220.5" y="286" width="120" height="60" as="geometry" />
        </mxCell>
        <mxCell id="2ZtzwXfV-rk-jxDoaxTh-3" value="调试" style="edgeStyle=orthogonalEdgeStyle;rounded=0;orthogonalLoop=1;jettySize=auto;html=1;exitX=0.25;exitY=0;exitDx=0;exitDy=0;entryX=0.25;entryY=1;entryDx=0;entryDy=0;fontSize=12;fontColor=#000000;endArrow=classic;endFill=1;" edge="1" parent="ge5L9ozpoHXoKX3X5Ei_-1" source="iKFwZHbpq23q5c-G5lsw-4" target="FdDDtz1to_vNbsyQbwL1-3">
          <mxGeometry x="-0.571" y="-31" relative="1" as="geometry">
            <mxPoint as="offset" />
          </mxGeometry>
        </mxCell>
        <mxCell id="iKFwZHbpq23q5c-G5lsw-4" value="浏览器、开发工具&lt;br&gt;PC" style="rounded=1;whiteSpace=wrap;html=1;" vertex="1" parent="ge5L9ozpoHXoKX3X5Ei_-1">
          <mxGeometry x="127" y="368" width="113" height="60" as="geometry" />
        </mxCell>
        <mxCell id="iKFwZHbpq23q5c-G5lsw-5" value="Developer" style="text;html=1;strokeColor=none;fillColor=none;align=center;verticalAlign=middle;whiteSpace=wrap;rounded=0;fontSize=12;fontColor=#000000;" vertex="1" parent="ge5L9ozpoHXoKX3X5Ei_-1">
          <mxGeometry x="186" y="462" width="60" height="30" as="geometry" />
        </mxCell>
        <mxCell id="iKFwZHbpq23q5c-G5lsw-6" value="Tester" style="text;html=1;strokeColor=none;fillColor=none;align=center;verticalAlign=middle;whiteSpace=wrap;rounded=0;fontSize=12;fontColor=#000000;" vertex="1" parent="ge5L9ozpoHXoKX3X5Ei_-1">
          <mxGeometry x="398" y="462" width="60" height="30" as="geometry" />
        </mxCell>
        <mxCell id="2ZtzwXfV-rk-jxDoaxTh-0" value="云服务器" style="rounded=1;whiteSpace=wrap;html=1;" vertex="1" parent="ge5L9ozpoHXoKX3X5Ei_-1">
          <mxGeometry x="556" y="206" width="110" height="60" as="geometry" />
        </mxCell>
        <mxCell id="2ZtzwXfV-rk-jxDoaxTh-1" value="" style="endArrow=none;dashed=1;html=1;dashPattern=1 3;strokeWidth=2;rounded=0;fontSize=12;edgeStyle=orthogonalEdgeStyle;" edge="1" parent="ge5L9ozpoHXoKX3X5Ei_-1">
          <mxGeometry width="50" height="50" relative="1" as="geometry">
            <mxPoint x="526" y="446" as="sourcePoint" />
            <mxPoint x="526" y="176" as="targetPoint" />
          </mxGeometry>
        </mxCell>
        <mxCell id="hn4bFSvkFgK69JfezBoe-3" value="互联网" style="text;html=1;strokeColor=none;fillColor=none;align=center;verticalAlign=middle;whiteSpace=wrap;rounded=0;fontSize=12;fontColor=#0000FF;" vertex="1" parent="ge5L9ozpoHXoKX3X5Ei_-1">
          <mxGeometry x="576" y="176" width="70" height="30" as="geometry" />
        </mxCell>
        <mxCell id="hn4bFSvkFgK69JfezBoe-4" value="&lt;b&gt;&lt;font style=&quot;font-size: 24px&quot;&gt;会签系统开发测试流程示意图&lt;/font&gt;&lt;/b&gt;" style="text;html=1;align=center;verticalAlign=middle;resizable=0;points=[];autosize=1;strokeColor=none;fillColor=none;" vertex="1" parent="ge5L9ozpoHXoKX3X5Ei_-1">
          <mxGeometry x="277" y="627" width="330" height="20" as="geometry" />
        </mxCell>
        <mxCell id="hn4bFSvkFgK69JfezBoe-5" style="edgeStyle=orthogonalEdgeStyle;rounded=0;orthogonalLoop=1;jettySize=auto;html=1;exitX=1;exitY=0.5;exitDx=0;exitDy=0;entryX=0;entryY=0.5;entryDx=0;entryDy=0;fontSize=12;fontColor=#000000;endArrow=classic;endFill=1;dashed=1;" edge="1" parent="ge5L9ozpoHXoKX3X5Ei_-1" source="hn4bFSvkFgK69JfezBoe-6" target="hn4bFSvkFgK69JfezBoe-21">
          <mxGeometry relative="1" as="geometry" />
        </mxCell>
        <mxCell id="hn4bFSvkFgK69JfezBoe-6" value="测试服务器&lt;br&gt;192.168.0.212" style="rounded=1;whiteSpace=wrap;html=1;" vertex="1" parent="ge5L9ozpoHXoKX3X5Ei_-1">
          <mxGeometry x="339" y="727" width="108" height="60" as="geometry" />
        </mxCell>
        <mxCell id="hn4bFSvkFgK69JfezBoe-7" value="外网局域网" style="text;html=1;strokeColor=none;fillColor=none;align=center;verticalAlign=middle;whiteSpace=wrap;rounded=0;fontSize=12;fontColor=#0000FF;" vertex="1" parent="ge5L9ozpoHXoKX3X5Ei_-1">
          <mxGeometry x="247.5" y="697" width="70" height="30" as="geometry" />
        </mxCell>
        <mxCell id="hn4bFSvkFgK69JfezBoe-8" value="&lt;font color=&quot;#000000&quot;&gt;推送&lt;/font&gt;" style="edgeStyle=orthogonalEdgeStyle;rounded=0;orthogonalLoop=1;jettySize=auto;html=1;exitX=1;exitY=0.5;exitDx=0;exitDy=0;entryX=0;entryY=0.5;entryDx=0;entryDy=0;fontSize=12;fontColor=#0000FF;" edge="1" parent="ge5L9ozpoHXoKX3X5Ei_-1" source="hn4bFSvkFgK69JfezBoe-9" target="hn4bFSvkFgK69JfezBoe-6">
          <mxGeometry x="-0.1304" y="20" relative="1" as="geometry">
            <mxPoint as="offset" />
          </mxGeometry>
        </mxCell>
        <mxCell id="hn4bFSvkFgK69JfezBoe-9" value="本地服务器" style="rounded=1;whiteSpace=wrap;html=1;" vertex="1" parent="ge5L9ozpoHXoKX3X5Ei_-1">
          <mxGeometry x="127" y="727" width="120" height="60" as="geometry" />
        </mxCell>
        <mxCell id="hn4bFSvkFgK69JfezBoe-10" value="" style="shape=umlActor;verticalLabelPosition=bottom;verticalAlign=top;html=1;outlineConnect=0;" vertex="1" parent="ge5L9ozpoHXoKX3X5Ei_-1">
          <mxGeometry x="162" y="968" width="30" height="60" as="geometry" />
        </mxCell>
        <mxCell id="hn4bFSvkFgK69JfezBoe-11" value="" style="shape=umlActor;verticalLabelPosition=bottom;verticalAlign=top;html=1;outlineConnect=0;" vertex="1" parent="ge5L9ozpoHXoKX3X5Ei_-1">
          <mxGeometry x="369" y="968" width="30" height="60" as="geometry" />
        </mxCell>
        <mxCell id="hn4bFSvkFgK69JfezBoe-12" value="连接/测试" style="edgeStyle=orthogonalEdgeStyle;rounded=0;orthogonalLoop=1;jettySize=auto;html=1;exitX=0.5;exitY=0;exitDx=0;exitDy=0;entryX=0.5;entryY=1;entryDx=0;entryDy=0;fontSize=12;fontColor=#000000;endArrow=classic;endFill=1;" edge="1" parent="ge5L9ozpoHXoKX3X5Ei_-1" source="hn4bFSvkFgK69JfezBoe-13" target="hn4bFSvkFgK69JfezBoe-6">
          <mxGeometry x="-0.5686" y="-44" relative="1" as="geometry">
            <mxPoint as="offset" />
          </mxGeometry>
        </mxCell>
        <mxCell id="hn4bFSvkFgK69JfezBoe-13" value="浏览器、测试工具&lt;br&gt;PC" style="rounded=1;whiteSpace=wrap;html=1;" vertex="1" parent="ge5L9ozpoHXoKX3X5Ei_-1">
          <mxGeometry x="338" y="889" width="110" height="60" as="geometry" />
        </mxCell>
        <mxCell id="hn4bFSvkFgK69JfezBoe-14" style="edgeStyle=orthogonalEdgeStyle;rounded=0;orthogonalLoop=1;jettySize=auto;html=1;exitX=1;exitY=0.5;exitDx=0;exitDy=0;entryX=0.25;entryY=1;entryDx=0;entryDy=0;fontSize=12;fontColor=#000000;endArrow=none;endFill=0;" edge="1" parent="ge5L9ozpoHXoKX3X5Ei_-1" source="hn4bFSvkFgK69JfezBoe-16" target="hn4bFSvkFgK69JfezBoe-6">
          <mxGeometry relative="1" as="geometry" />
        </mxCell>
        <mxCell id="hn4bFSvkFgK69JfezBoe-15" style="edgeStyle=orthogonalEdgeStyle;rounded=0;orthogonalLoop=1;jettySize=auto;html=1;exitX=0;exitY=0.5;exitDx=0;exitDy=0;entryX=0.5;entryY=1;entryDx=0;entryDy=0;fontSize=12;fontColor=#000000;endArrow=none;endFill=0;" edge="1" parent="ge5L9ozpoHXoKX3X5Ei_-1" source="hn4bFSvkFgK69JfezBoe-16" target="hn4bFSvkFgK69JfezBoe-9">
          <mxGeometry relative="1" as="geometry" />
        </mxCell>
        <mxCell id="hn4bFSvkFgK69JfezBoe-16" value="MySQL数据库&lt;br&gt;192.168.0.101" style="shape=process;whiteSpace=wrap;html=1;backgroundOutline=1;" vertex="1" parent="ge5L9ozpoHXoKX3X5Ei_-1">
          <mxGeometry x="221.5" y="807" width="120" height="60" as="geometry" />
        </mxCell>
        <mxCell id="hn4bFSvkFgK69JfezBoe-17" value="调试" style="edgeStyle=orthogonalEdgeStyle;rounded=0;orthogonalLoop=1;jettySize=auto;html=1;exitX=0.25;exitY=0;exitDx=0;exitDy=0;entryX=0.25;entryY=1;entryDx=0;entryDy=0;fontSize=12;fontColor=#000000;endArrow=classic;endFill=1;" edge="1" parent="ge5L9ozpoHXoKX3X5Ei_-1" source="hn4bFSvkFgK69JfezBoe-18" target="hn4bFSvkFgK69JfezBoe-9">
          <mxGeometry x="-0.571" y="-31" relative="1" as="geometry">
            <mxPoint as="offset" />
          </mxGeometry>
        </mxCell>
        <mxCell id="hn4bFSvkFgK69JfezBoe-18" value="浏览器、开发工具&lt;br&gt;PC" style="rounded=1;whiteSpace=wrap;html=1;" vertex="1" parent="ge5L9ozpoHXoKX3X5Ei_-1">
          <mxGeometry x="128" y="889" width="113" height="60" as="geometry" />
        </mxCell>
        <mxCell id="hn4bFSvkFgK69JfezBoe-19" value="Developer" style="text;html=1;strokeColor=none;fillColor=none;align=center;verticalAlign=middle;whiteSpace=wrap;rounded=0;fontSize=12;fontColor=#000000;" vertex="1" parent="ge5L9ozpoHXoKX3X5Ei_-1">
          <mxGeometry x="187" y="983" width="60" height="30" as="geometry" />
        </mxCell>
        <mxCell id="hn4bFSvkFgK69JfezBoe-20" value="Tester" style="text;html=1;strokeColor=none;fillColor=none;align=center;verticalAlign=middle;whiteSpace=wrap;rounded=0;fontSize=12;fontColor=#000000;" vertex="1" parent="ge5L9ozpoHXoKX3X5Ei_-1">
          <mxGeometry x="399" y="983" width="60" height="30" as="geometry" />
        </mxCell>
        <mxCell id="hn4bFSvkFgK69JfezBoe-21" value="服务器" style="rounded=1;whiteSpace=wrap;html=1;" vertex="1" parent="ge5L9ozpoHXoKX3X5Ei_-1">
          <mxGeometry x="557" y="727" width="110" height="60" as="geometry" />
        </mxCell>
        <mxCell id="hn4bFSvkFgK69JfezBoe-22" value="" style="endArrow=none;html=1;strokeWidth=2;rounded=0;fontSize=12;edgeStyle=orthogonalEdgeStyle;" edge="1" parent="ge5L9ozpoHXoKX3X5Ei_-1">
          <mxGeometry width="50" height="50" relative="1" as="geometry">
            <mxPoint x="527" y="967" as="sourcePoint" />
            <mxPoint x="527" y="697" as="targetPoint" />
          </mxGeometry>
        </mxCell>
        <mxCell id="hn4bFSvkFgK69JfezBoe-23" value="客户局域网" style="text;html=1;strokeColor=none;fillColor=none;align=center;verticalAlign=middle;whiteSpace=wrap;rounded=0;fontSize=12;fontColor=#0000FF;" vertex="1" parent="ge5L9ozpoHXoKX3X5Ei_-1">
          <mxGeometry x="577" y="697" width="70" height="30" as="geometry" />
        </mxCell>
      </root>
    </mxGraphModel>
  </diagram>
</mxfile>
